
<svg width="423px" height="400px" viewBox="0 0 423 400" version="1.1" xmlns="http://www.w3.org/2000/svg" xmlns:xlink="http://www.w3.org/1999/xlink">
    <!-- Generator: Sketch 50.2 (55047) - http://www.bohemiancoding.com/sketch -->
    <desc>Created with Sketch.</desc>
    <defs></defs>
    <g id="Meta" stroke="none" stroke-width="1" fill="none" fill-rule="evenodd" opacity="0.100000001">
        <g id="KB_404" transform="translate(-509.000000, -904.000000)" fill="#ABB0C0">
            <g id="Intro" transform="translate(0.000000, 800.000000)">
                <g id="Shapes" transform="translate(509.000000, 104.000000)">
                    <path d="M256.332846,342.574318 C256.312672,342.53261 256.292521,342.49089 256.272392,342.449158 C271.122887,334.023913 283.213634,321.475678 291.081784,306.322654 C297.755533,293.405885 301.269967,279.090207 301.336443,264.551383 C301.424008,253.855317 299.310463,243.255569 295.1272,233.411088 C292.639659,227.630407 289.276035,222.267648 285.15478,217.511663 C281.654903,213.469284 277.563108,209.980157 273.018532,207.162925 C296.888149,178.519015 332.258234,161.971606 369.544037,162.004794 C376.349697,161.991786 383.145363,162.52663 389.865195,163.604145 C367.928498,184.400483 338.992104,196.216737 308.768719,196.720107 C304.441065,196.720107 300.677887,196.720107 300.677887,201.047761 C300.677887,202.92935 305.099621,208.762275 309.615434,218.170219 C314.184943,227.729188 317.201957,237.955276 318.552981,248.463799 C319.015681,252.901047 319.204198,257.362615 319.117457,261.823079 L319.117457,262.952032 C318.98171,283.286206 313.533178,303.231727 303.312112,320.810887 C294.2538,336.470454 282.375495,350.316741 268.278574,361.650805 C268.321876,361.710415 268.365231,361.769987 268.40864,361.829523 C230.486156,391.61127 182.140119,404.80889 134.345439,398.426424 C117.423467,396.181286 100.952006,391.325537 85.5182101,384.03227 C86.4890808,367.648592 90.8118207,351.638444 98.2189344,336.992551 C121.967022,350.143626 148.512426,357.433129 175.646313,358.254504 L178.562775,358.254504 L187.970719,358.254504 C211.746828,359.168768 235.336793,353.756489 256.332846,342.574318 Z M47.2419632,209.327578 C47.2685494,209.390046 47.2952143,209.45249 47.3219578,209.514911 C46.8202008,211.145621 46.3811635,212.807691 46.0048457,214.501121 C43.8760677,223.407308 42.8024553,232.533014 42.8061448,241.690079 C42.8133323,248.863109 43.5382186,256.017421 44.9699719,263.046112 C31.9369896,271.149804 17.4689714,276.675118 2.35198598,279.321855 C0.798234819,271.13389 0.0108357809,262.818956 0,254.484883 C0.182484586,220.359929 13.3716168,187.588973 36.8791401,162.851509 C37.5036304,161.68536 37.8875401,160.405661 38.0080934,159.088331 L38.0080934,158.523855 C38.0080934,152.59685 15.2408691,136.321107 15.2408691,100.57092 C15.2708211,94.2332085 16.0284186,87.9198958 17.4987757,81.7550325 C20.1181578,70.7950558 24.7086377,60.4027192 31.0462149,51.0851354 C48.6785166,24.5741859 78.1480435,8.34662755 109.978864,7.62043456 C129.453308,7.62043456 168.025878,14.6763925 168.025878,40.6423177 C167.72381,54.045463 156.876217,64.8099328 143.471145,65.0088924 C121.362476,65.0088924 120.233523,37.9140139 96.431425,37.9140139 C78.5754733,39.3379614 62.2416823,48.5192713 51.7436915,63.0332242 C51.6054506,62.9339357 51.4670066,62.8349452 51.3283606,62.7362535 C43.3359259,73.4387082 39.0217214,86.4484917 39.0429672,99.8182848 C39.0451532,102.778275 39.2652669,105.734087 39.7015233,108.661752 C41.103687,118.71337 44.6662958,128.342042 50.144341,136.885584 C50.09838,136.973339 50.0525821,137.061156 50.0069474,137.149035 C53.4736702,142.279124 57.2135568,145.446813 59.9286027,145.446813 C62.6569064,145.446813 72.2530092,140.272444 86.7412428,136.038869 C90.4103409,134.909916 94.4557568,133.969121 98.6893316,133.122406 C105.574799,131.817027 112.566858,131.155616 119.574967,131.146738 C129.253419,130.952564 138.865999,132.778954 147.798799,136.509266 C158.463819,140.20514 165.901282,149.899743 166.708766,161.158079 C166.708766,179.50357 144.506018,192.016135 116.846663,192.016135 L116.282187,192.016135 C110.225248,192.027531 104.179641,191.492243 98.2189344,190.416785 C86.5873142,187.621393 75.2229713,183.812292 64.2562569,179.033173 C59.9286027,179.033173 57.7647756,184.960177 57.2002989,185.524654 C52.9855953,193.054492 49.6446036,201.040552 47.2419632,209.327578 Z M125.125654,175.081836 C135.944789,175.081836 147.892878,172.918009 147.986958,162.66335 C147.986958,157.206743 144.129701,149.115911 124.655257,149.115911 C116.959513,149.080209 109.276346,149.741465 101.699874,151.091579 C87.6820372,153.725803 79.1208082,158.335696 79.1208082,161.628476 C79.2017741,162.866485 79.7783314,164.019599 80.7201587,164.827177 C86.8020378,169.406444 93.9044978,172.441131 101.417635,173.670645 C109.263202,174.839528 117.196825,175.311767 125.125654,175.081836 Z M253.920406,238.303219 C261.474952,244.104041 265.948724,253.051585 266.056654,262.575714 C265.952852,269.930329 263.696027,277.093294 259.565172,283.179112 C255.621712,289.03732 250.372317,293.900256 244.230224,297.385107 C236.689058,301.667778 228.15968,303.905524 219.487331,303.876588 C207.698354,303.899569 196.264256,299.844453 187.124004,292.398897 C181.244592,287.620491 176.436456,281.658401 173.012088,274.900121 C169.000916,266.999355 166.906024,258.265266 166.896925,249.404593 C166.896925,248.338359 166.896925,247.240766 166.896925,246.111813 C168.119958,221.839317 183.548986,199.166172 208.574116,183.360827 L210.643864,182.137794 C217.910352,189.126002 225.960573,195.250484 234.634121,200.389205 C207.351084,204.999098 186.277289,227.860401 186.277289,251.56842 C186.265335,258.666205 188.360898,265.607757 192.298373,271.513261 C197.891864,280.147149 207.506772,285.327136 217.793901,285.248859 C224.849859,285.248859 237.268345,281.297523 237.268345,275.840915 C237.309788,275.528686 237.309788,275.21235 237.268345,274.900121 C236.139392,270.290228 224.943939,273.018532 217.323504,262.857953 C214.915003,259.329311 213.575694,255.18072 213.466247,250.909864 C213.66129,245.510001 216.008751,240.412652 219.985269,236.754256 C223.961786,233.095859 229.23675,231.180579 234.634121,231.43542 C241.645458,231.528982 248.42798,233.944221 253.920406,238.303219 Z M392.781658,21.5441915 C411.70297,39.42079 422.307725,64.3811777 422.040364,90.4103409 C421.620014,117.976379 409.964383,144.176062 389.771116,162.945588 C383.051283,161.868074 376.255618,161.33323 369.449957,161.346238 C332.164154,161.31305 296.794069,177.860458 272.924453,206.504369 L270.384308,205.093177 C262.314397,192.607289 256.635886,178.730027 253.638168,164.168621 C289.106116,155.042916 324.950383,154.760677 353.174214,142.53035 C376.317756,132.275691 400.213934,111.107818 400.213934,78.0859344 C401.275016,50.2385589 381.85518,25.7839505 354.491326,20.5093177 C352.549211,20.3787083 350.600516,20.3787083 348.658401,20.5093177 C343.76627,20.5093177 332.382658,21.638271 332.382658,25.4014485 C332.31833,25.6800214 332.31833,25.9695906 332.382658,26.2481635 C337.469658,30.9613706 340.508987,37.4790442 340.849808,44.4054952 C340.900488,50.3094208 338.577555,55.9862706 334.402695,60.1611302 C330.227835,64.3359898 324.550986,66.6589231 318.64706,66.6082429 C307.286809,66.3157933 297.58636,58.3226235 295.1272,47.2278784 C294.51514,44.8933889 294.199062,42.4911996 294.186406,40.077841 C294.186406,16.8402196 316.95363,0 341.884682,0 C360.946582,0.568328779 379.104609,8.25444375 392.781658,21.5441915 Z M44.9699719,263.610588 C51.1996015,294.522012 70.4734546,321.237904 97.8426166,336.898471 C90.435503,351.544364 86.112763,367.554512 85.1418923,383.938191 C42.5726843,364.388291 11.837428,325.759662 2.35198598,279.886331 C17.4689714,277.239595 31.9369896,271.714281 44.9699719,263.610588 Z M253.732247,164.733098 C256.729965,179.294504 262.408477,193.171765 270.478387,205.657654 C265.423938,202.955126 259.955596,201.11115 254.296724,200.201046 C251.186726,199.692287 248.040107,199.440558 244.88878,199.448411 C241.484072,199.442869 238.085029,199.726122 234.7282,200.295126 C226.054652,195.156404 218.004432,189.031922 210.737943,182.043715 L215.253757,179.40949 L219.393252,177.245663 C230.363489,171.86891 241.874592,167.674454 253.732247,164.733098 Z" id="Combined-Shape"></path>
                </g>
            </g>
        </g>
    </g>
</svg>