<?xml version="1.0" encoding="UTF-8"?>
<svg width="24px" height="20px" viewBox="0 0 24 20" version="1.1" xmlns="http://www.w3.org/2000/svg" xmlns:xlink="http://www.w3.org/1999/xlink">
    <!-- Generator: sketchtool 55.2 (78181) - https://sketchapp.com -->
    <title>F7A00923-F44A-4045-AD6A-2AEB336100E1</title>
    <desc>Created with sketchtool.</desc>
    <g id="Events" stroke="none" stroke-width="1" fill="none" fill-rule="evenodd">
        <g id="KB_Events_submit_feature-payment" transform="translate(-680.000000, -3530.000000)" fill="#ABB0C0">
            <g id="Content" transform="translate(0.000000, 600.000000)">
                <g id="Group" transform="translate(200.000000, 80.000000)">
                    <g id="Payment-Information" transform="translate(0.000000, 2544.000000)">
                        <g id="From" transform="translate(0.000000, 132.000000)">
                            <g id="Card-Number" transform="translate(0.000000, 144.000000)">
                                <g id="Icon" transform="translate(480.000000, 28.000000)">
                                    <path d="M13,8 L13,6 L16,6 L16,8 L18,8 L18,5 C18,4.44771525 17.5522847,4 17,4 L3,4 C2.44771525,4 2,4.44771525 2,5 L2,13 C2,13.5522847 2.44771525,14 3,14 L4,14 L4,11 C4,9.34314575 5.34314575,8 7,8 L13,8 Z M4,16 L3,16 C1.34314575,16 0,14.6568542 0,13 L0,5 C0,3.34314575 1.34314575,2 3,2 L17,2 C18.6568542,2 20,3.34314575 20,5 L20,8 L21,8 C22.6568542,8 24,9.34314575 24,11 L24,19 C24,20.6568542 22.6568542,22 21,22 L7,22 C5.34314575,22 4,20.6568542 4,19 L4,16 Z M7,10 C6.44771525,10 6,10.4477153 6,11 L6,19 C6,19.5522847 6.44771525,20 7,20 L21,20 C21.5522847,20 22,19.5522847 22,19 L22,11 C22,10.4477153 21.5522847,10 21,10 L7,10 Z M6,15 L22,15 L22,18 L6,18 L6,15 Z" id="🎨"></path>
                                </g>
                            </g>
                        </g>
                    </g>
                </g>
            </g>
        </g>
    </g>
</svg>