<svg width="120px" height="120px" viewBox="0 0 120 120" version="1.1" xmlns="http://www.w3.org/2000/svg" xmlns:xlink="http://www.w3.org/1999/xlink">
    <!-- Generator: Sketch 51.1 (57501) - http://www.bohemiancoding.com/sketch -->
    <title>instagram</title>
    <desc>Created with Sketch.</desc>
    <defs></defs>
    <g id="Symbols" stroke="none" stroke-width="1" fill="none" fill-rule="evenodd">
        <g id="atoms-/-instagram-card" transform="translate(-64.000000, -64.000000)" fill="#FFFFFF" fill-rule="nonzero">
            <path d="M98.8,64 L149.2,64 C168.4,64 184,79.6 184,98.8 L184,149.2 C184,168.419509 168.419509,184 149.2,184 L98.8,184 C79.6,184 64,168.4 64,149.2 L64,98.8 C64,79.5804907 79.5804907,64 98.8,64 Z M97.6,76 C85.6706494,76 76,85.6706494 76,97.6 L76,150.4 C76,162.34 85.66,172 97.6,172 L150.4,172 C162.329351,172 172,162.329351 172,150.4 L172,97.6 C172,85.66 162.34,76 150.4,76 L97.6,76 Z M155.5,85 C159.642136,85 163,88.3578644 163,92.5 C163,96.6421356 159.642136,100 155.5,100 C151.357864,100 148,96.6421356 148,92.5 C148,88.3578644 151.357864,85 155.5,85 Z M124,94 C140.568542,94 154,107.431458 154,124 C154,140.568542 140.568542,154 124,154 C107.431458,154 94,140.568542 94,124 C94,107.431458 107.431458,94 124,94 Z M124,106 C114.058875,106 106,114.058875 106,124 C106,133.941125 114.058875,142 124,142 C133.941125,142 142,133.941125 142,124 C142,114.058875 133.941125,106 124,106 Z" id="instagram"></path>
        </g>
    </g>
</svg>