<?xml version="1.0" standalone="no"?>
<!DOCTYPE svg PUBLIC "-//W3C//DTD SVG 20010904//EN"
 "http://www.w3.org/TR/2001/REC-SVG-20010904/DTD/svg10.dtd">
<svg version="1.0" xmlns="http://www.w3.org/2000/svg"
 width="512.000000pt" height="512.000000pt" viewBox="0 0 512.000000 512.000000"
 preserveAspectRatio="xMidYMid meet">
<metadata>
Created by potrace 1.11, written by Peter Selinger 2001-2013
</metadata>
<g transform="translate(0.000000,512.000000) scale(0.100000,-0.100000)"
fill="#000000" stroke="none">
<path d="M3520 4146 c-164 -36 -276 -150 -288 -292 -4 -55 -1 -71 23 -119 36
-74 85 -107 166 -113 49 -4 65 0 101 21 63 36 91 92 86 167 -4 53 -10 68 -53
126 -20 28 12 39 118 39 93 0 107 -3 156 -29 74 -38 162 -124 194 -188 114
-229 54 -479 -156 -644 -134 -105 -247 -143 -609 -204 -289 -48 -409 -77 -543
-131 -300 -120 -487 -332 -511 -579 -16 -174 83 -353 240 -430 157 -77 336
-54 460 60 67 62 101 138 101 225 -1 78 -16 118 -69 173 -142 152 -387 73
-352 -113 10 -53 58 -101 127 -126 32 -12 59 -28 59 -35 0 -21 -47 -51 -101
-64 -154 -37 -299 88 -299 256 0 243 273 450 533 406 247 -43 401 -262 383
-547 -16 -258 -162 -483 -385 -591 -178 -86 -290 -108 -541 -108 -282 0 -472
42 -693 156 -177 91 -336 270 -404 456 -83 226 -65 488 49 717 18 37 40 71 50
76 12 6 34 2 74 -16 251 -111 534 -107 687 10 126 96 111 256 -32 342 -148 89
-412 82 -650 -17 -41 -16 -83 -30 -95 -30 -70 0 -165 200 -166 347 -1 230 174
445 399 492 102 22 154 0 261 -108 100 -101 167 -123 255 -82 101 47 149 155
109 249 -42 103 -173 171 -368 192 -244 28 -470 -60 -654 -254 -133 -141 -202
-307 -202 -486 0 -140 32 -236 125 -375 30 -45 55 -89 55 -98 0 -9 -15 -34
-33 -54 -192 -219 -274 -447 -265 -738 5 -160 31 -266 99 -413 158 -342 494
-601 889 -688 121 -27 448 -27 570 0 271 59 484 167 663 336 154 146 251 295
313 480 26 80 28 96 28 255 1 198 -7 232 -86 392 -28 56 -48 109 -45 116 4 11
32 17 99 22 386 30 727 273 832 594 37 111 50 202 43 300 -8 116 -28 188 -84
301 -89 182 -269 326 -458 365 -83 17 -131 18 -205 1z m-1564 -1197 c72 -18
111 -79 84 -130 -27 -50 -162 -71 -320 -50 -88 11 -203 58 -214 86 -24 63 302
131 450 94z"/>
</g>
</svg>
